<?xml version="1.0" encoding="UTF-8"?>
<svg version="1.1" xmlns="http://www.w3.org/2000/svg" width="512" height="512">
<path d="M0 0 C0.75267151 0.00215515 1.50534302 0.0043103 2.28082275 0.00653076 C13.55521439 0.0583402 24.41663476 0.48711504 35.375 3.3125 C36.52718018 3.59456299 36.52718018 3.59456299 37.70263672 3.88232422 C56.05107759 8.47949188 73.94350886 15.87989119 88.375 28.3125 C89.25285156 29.04210937 90.13070313 29.77171875 91.03515625 30.5234375 C107.13371418 44.36382667 114.93622143 61.62600375 117.17250061 82.58120728 C117.58552005 88.15197458 117.49541721 93.73353119 117.47265625 99.31640625 C117.47053383 101.2949485 117.47053383 101.2949485 117.46836853 103.3134613 C117.46458243 106.79039466 117.45478636 110.26728507 117.44366455 113.74420166 C117.4333656 117.30407124 117.42885288 120.86394788 117.42382812 124.42382812 C117.41315988 131.38673619 117.39613145 138.34961603 117.375 145.3125 C118.04321777 145.36583496 118.71143555 145.41916992 119.39990234 145.47412109 C120.72948975 145.59134521 120.72948975 145.59134521 122.0859375 145.7109375 C122.96040527 145.78489746 123.83487305 145.85885742 124.73583984 145.93505859 C133.44954683 147.18125573 140.6030443 152.44916626 145.9140625 159.296875 C151.51616892 167.74917591 152.26733324 176.34448481 151.375 186.3125 C149.84564634 192.65064609 147.33634724 198.11323175 143.375 203.3125 C142.77945312 204.116875 142.18390625 204.92125 141.5703125 205.75 C135.68238364 212.62274258 127.1215373 216.52468577 118.375 218.3125 C117.22902344 218.30347656 116.08304687 218.29445312 114.90234375 218.28515625 C111.3886285 218.93567076 111.3886285 218.93567076 109.97802734 221.1015625 C108.59443645 223.64868796 107.37880506 226.23248541 106.1875 228.875 C98.29208541 245.10699081 84.74960142 266.97700752 68.1015625 275.47265625 C65.45577921 276.91623275 64.13886075 277.83477136 62.375 280.3125 C61.9418345 283.23222614 62.04564999 286.09570448 62.15625 289.0390625 C62.17204102 289.83352783 62.18783203 290.62799316 62.20410156 291.4465332 C62.24524366 293.40225241 62.30801683 295.35749525 62.375 297.3125 C63.10875351 297.56813217 63.84250702 297.82376434 64.59849548 298.08714294 C71.64018895 300.54065621 78.68143805 302.99543916 85.72223568 305.45152187 C89.33876448 306.71305041 92.95544178 307.97414904 96.57250977 309.23413086 C110.88314877 314.21953674 125.19009524 319.21476991 139.45703125 324.32421875 C140.45701645 324.68059921 141.45700165 325.03697968 142.48728943 325.40415955 C159.75036346 331.61692637 174.93493047 340.00692535 184.375 356.3125 C184.83261719 357.08980469 185.29023438 357.86710937 185.76171875 358.66796875 C195.19870426 376.0399571 195.69384854 395.89516218 195.67578125 415.171875 C195.67968246 416.93630064 195.68401997 418.70072536 195.68876648 420.46514893 C195.69616011 424.13255891 195.69598587 427.79987248 195.69067383 431.46728516 C195.68485834 436.13589397 195.70189372 440.80410874 195.7250185 445.47265244 C195.73983144 449.10520684 195.74061782 452.73766763 195.73750877 456.37024689 C195.7380172 458.09081051 195.74316349 459.81138004 195.75332069 461.53191376 C195.8330647 476.91013298 194.58405941 489.30255675 183.8125 501.125 C175.58587678 508.50786699 168.50707304 512.39158029 157.375 512.50537109 C156.67858398 512.51354858 155.98216797 512.52172607 155.26464844 512.53015137 C152.96810755 512.55489531 150.67162776 512.57148801 148.375 512.5859375 C147.19647461 512.59392302 147.19647461 512.59392302 145.99414062 512.60206985 C141.83985369 512.62874649 137.68559632 512.64814361 133.53125 512.66259766 C130.09348104 512.67596531 126.65630168 512.70387644 123.21875 512.74462891 C119.06436735 512.79387341 114.91052144 512.81870727 110.75585938 512.82582474 C109.17376844 512.83254471 107.59168985 512.84778635 106.00976562 512.87171555 C103.79753795 512.90328524 101.58739313 512.90341851 99.375 512.89599609 C98.116875 512.90408295 96.85875 512.9121698 95.5625 512.92050171 C92.375 512.3125 92.375 512.3125 89.9375 509.90103149 C88.375 507.3125 88.375 507.3125 88.375 505.3125 C82.105 505.3125 75.835 505.3125 69.375 505.3125 C68.715 506.9625 68.055 508.6125 67.375 510.3125 C64.7452431 512.9422569 62.85470994 512.55977037 59.27450752 512.589311 C58.41169104 512.5862138 57.54887455 512.5831166 56.65991211 512.57992554 C55.74645964 512.58445665 54.83300716 512.58898776 53.89187431 512.59365618 C50.81198026 512.60637898 47.73226127 512.60467472 44.65234375 512.60302734 C42.45155101 512.60900794 40.25076038 512.61581239 38.04997253 512.62338257 C32.05579789 512.64110387 26.0616803 512.6457407 20.06748199 512.64701414 C15.06535231 512.64891024 10.063236 512.65626498 5.06111145 512.66335833 C-6.06984119 512.67873297 -17.20077272 512.68469418 -28.3317337 512.68334763 C-29.00004967 512.68326772 -29.66836563 512.6831878 -30.35693359 512.68310547 C-31.36063492 512.68298283 -31.36063492 512.68298283 -32.38461304 512.68285771 C-43.21245526 512.682046 -54.04015796 512.70115122 -64.86795986 512.7293822 C-75.98965953 512.75814994 -87.11130175 512.77155441 -98.23304081 512.77019465 C-104.47533972 512.76968499 -110.71748105 512.77536985 -116.95974731 512.79655075 C-122.8366588 512.81594523 -128.7132627 512.81604901 -134.59018517 512.80151749 C-136.74359271 512.79942937 -138.89701954 512.80413039 -141.05039406 512.8162384 C-143.9986357 512.83173726 -146.94582307 512.82235158 -149.89404297 512.80697632 C-150.73901368 512.81726344 -151.58398439 512.82755057 -152.45456028 512.83814943 C-162.33389533 512.72491235 -170.82874142 508.62913272 -178.125 502.0625 C-187.27170116 492.00112873 -190.76435491 483.221759 -190.78613281 469.52905273 C-190.79109772 468.77186951 -190.79606262 468.01468628 -190.80117798 467.23455811 C-190.81573195 464.73839383 -190.82259601 462.24229344 -190.828125 459.74609375 C-190.83095238 458.88416979 -190.83377975 458.02224583 -190.83669281 457.13420296 C-190.85167033 452.55829694 -190.86090451 447.98242223 -190.86523438 443.40649414 C-190.86959434 439.66225302 -190.88339059 435.91824554 -190.90625 432.17407227 C-191.30100369 366.19525455 -191.30100369 366.19525455 -171.0625 344.1875 C-160.75976854 334.57292809 -149.00944519 329.44390497 -135.80615234 325.04833984 C-133.84421037 324.38645344 -131.89924042 323.67475924 -129.95703125 322.95703125 C-128.91933594 322.57933594 -127.88164063 322.20164062 -126.8125 321.8125 C-125.50345703 321.33296875 -125.50345703 321.33296875 -124.16796875 320.84375 C-120.97388798 320.1764766 -118.77103203 320.47243804 -115.625 321.3125 C-114.98691406 321.87582031 -114.34882813 322.43914062 -113.69140625 323.01953125 C-113.00949219 323.44621094 -112.32757813 323.87289063 -111.625 324.3125 C-109.04734721 323.69590861 -106.96917545 323.0221498 -104.5625 322 C-97.90217391 319.3125 -97.90217391 319.3125 -94.625 319.3125 C-94.728125 318.425625 -94.83125 317.53875 -94.9375 316.625 C-94.51627441 312.16000872 -93.0242176 311.16455531 -89.625 308.3125 C-87.09276864 307.17293416 -84.75993648 306.25380187 -82.13671875 305.41796875 C-81.43352005 305.18088699 -80.73032135 304.94380524 -80.0058136 304.69953918 C-77.77909535 303.95233668 -75.54622799 303.22594353 -73.3125 302.5 C-71.79316494 301.99420281 -70.27427896 301.48705451 -68.75585938 300.97851562 C-65.05058334 299.74082503 -61.33965422 298.52173783 -57.625 297.3125 C-56.25902485 287.04157236 -56.25902485 287.04157236 -59.5 277.71875 C-62.11641203 275.72373583 -64.81848109 274.0278076 -67.625 272.3125 C-73.86100584 267.15420861 -79.5837072 261.64270064 -84.625 255.3125 C-85.44613281 254.29027344 -86.26726562 253.26804688 -87.11328125 252.21484375 C-92.15444516 245.72609121 -96.15704801 239.39014516 -99.60668945 231.9128418 C-103.27422447 223.33646556 -103.27422447 223.33646556 -110.078125 217.484375 C-113.6129856 216.82637065 -117.04276857 216.56985614 -120.625 216.3125 C-131.6967355 212.28912371 -138.64860324 205.16711088 -143.890625 194.8125 C-147.96905183 185.16213792 -148.28938254 174.71293549 -144.625 164.875 C-140.59815975 156.4469935 -134.39756722 150.54898111 -125.625 147.3125 C-121.26608751 145.90535571 -117.21113823 145.2174505 -112.625 145.3125 C-112.63499275 144.24492966 -112.63499275 144.24492966 -112.64518738 143.15579224 C-112.70595144 136.36259333 -112.75129982 129.56943637 -112.78043652 122.7760334 C-112.79592084 119.28562712 -112.81683194 115.79545014 -112.85131836 112.30517578 C-113.09939105 86.49758465 -113.27352563 58.75401485 -94.5 38.625 C-87.56671505 32.06272695 -80.02914363 27.80878649 -70.8125 25.375 C-65.19973151 23.81589764 -63.04273773 22.01031981 -59.59765625 17.46484375 C-45.38906438 1.96200391 -19.45492254 -0.10012028 0 0 Z " fill="#020201" transform="translate(253.625,-0.3125)"/>
<path d="M0 0 C0.4021875 1.14275391 0.4021875 1.14275391 0.8125 2.30859375 C5.27394955 14.06392628 11.64948178 21.48496366 23 27 C41.40085126 35.18716289 65.81887596 36.51537766 84.72265625 29.4140625 C85.80417969 28.94742187 86.88570312 28.48078125 88 28 C88.94746094 27.61585938 89.89492188 27.23171875 90.87109375 26.8359375 C102.13515487 21.79539873 108.32230411 14.2765883 113 3 C113.33 2.01 113.66 1.02 114 0 C120.91382797 2.00565169 127.71305697 4.24040537 134.4921875 6.66015625 C135.46861206 7.00644577 136.44503662 7.35273529 137.4510498 7.70951843 C140.59327676 8.82463637 143.73422067 9.94331186 146.875 11.0625 C149.04113751 11.83312272 151.20731609 12.60362999 153.37353516 13.37402344 C156.59782098 14.52087067 159.821993 15.66803111 163.04574585 16.81637573 C169.03547145 18.94936181 175.02995246 21.06778751 181.03125 23.16796875 C182.31404887 23.61882023 183.59676777 24.06989934 184.87939453 24.52124023 C187.11823039 25.30822591 189.3586555 26.09071373 191.60107422 26.86743164 C207.38534598 32.44343931 219.99798595 39.70726203 228 55 C238.42942859 79.38146273 234 103.80864525 234 131 C191.43 131 148.86 131 105 131 C102.69 118.13 100.38 105.26 98 92 C95.29548553 74.07919762 95.29548553 74.07919762 84.8125 60.3125 C78.67103508 56.20607671 72.19038626 56.31396073 65 57 C62.78136287 57.88168443 62.78136287 57.88168443 61 59.125 C60.01 59.74375 59.02 60.3625 58 61 C55.375 60.375 55.375 60.375 53 59 C47.13540739 56.24557262 41.3644126 56.24672411 35 57 C28.03859625 59.64883602 23.55638934 65.09001836 20.515625 71.78125 C16.48192404 81.8624138 15.3947603 92.83111422 13.75 103.5 C13.22621779 106.80252383 12.69830712 110.10436715 12.16973877 113.40612793 C11.84430358 115.44890499 11.52249371 117.49226377 11.20477295 119.53625488 C11.06082092 120.45821655 10.9168689 121.38017822 10.76855469 122.33007812 C10.64373718 123.13771606 10.51891968 123.945354 10.39031982 124.77746582 C10.02269849 126.8707517 9.51546616 128.93813535 9 131 C-33.57 131 -76.14 131 -120 131 C-120 57.25944073 -120 57.25944073 -104.20703125 40.953125 C-94.89913218 32.71604617 -83.44877902 28.38078473 -71.77734375 24.62109375 C-70.75012207 24.28972412 -70.75012207 24.28972412 -69.70214844 23.95166016 C-67.78918141 23.34475908 -65.86934289 22.75964345 -63.94921875 22.17578125 C-60.73532526 21.21774682 -60.73532526 21.21774682 -59 18 C-58.76925781 16.845 -58.53851563 15.69 -58.30078125 14.5 C-57 11 -57 11 -53.91796875 9.1875 C-52.68691406 8.795625 -51.45585937 8.40375 -50.1875 8 C-48.96417969 7.5875 -47.74085938 7.175 -46.48046875 6.75 C-43.08725371 6.01880215 -41.24698032 5.88075364 -38 7 C-37.01 7.99 -37.01 7.99 -36 9 C-28.27711721 9.95389526 -21.79150015 7.14279574 -14.625 4.5 C-12.28472361 3.65384144 -9.94361943 2.80996771 -7.6015625 1.96875 C-6.57369629 1.59169922 -5.54583008 1.21464844 -4.48681641 0.82617188 C-2 0 -2 0 0 0 Z " fill="#6ED5A2" transform="translate(199,313)"/>
<path d="M0 0 C2.84567081 0.60763464 5.08090537 1.46855716 7.58984375 2.93359375 C8.28013672 3.32998047 8.97042969 3.72636719 9.68164062 4.13476562 C10.42607422 4.56466797 11.17050781 4.99457031 11.9375 5.4375 C53.20381544 28.70646388 100.73563855 44.42141403 148 49 C148.07519808 53.60405058 148.12908615 58.20772935 148.16479492 62.81225586 C148.17970976 64.3725407 148.20004901 65.93278494 148.22631836 67.49291992 C148.43700944 80.34507572 147.29912984 92.10437162 141.8125 103.9375 C141.50989258 104.60370361 141.20728516 105.26990723 140.89550781 105.95629883 C135.12266564 118.4163612 128.33287862 128.94035601 119 139 C118.49307617 139.55075195 117.98615234 140.10150391 117.46386719 140.66894531 C99.52473396 159.95099557 75.7173933 175.29468451 48.81176758 176.39453125 C23.27475644 176.89631912 0.92437347 161.95855937 -17 145 C-17.82371094 144.24074219 -18.64742187 143.48148438 -19.49609375 142.69921875 C-26.38788913 136.1299723 -31.73710061 128.87879254 -37 121 C-37.56589844 120.18015625 -38.13179687 119.3603125 -38.71484375 118.515625 C-42.11760896 113.2806016 -44.46562057 107.72435827 -46.75 101.9375 C-47.04414795 101.19338867 -47.3382959 100.44927734 -47.64135742 99.68261719 C-47.91955322 98.95075195 -48.19774902 98.21888672 -48.484375 97.46484375 C-48.85127441 96.49985962 -48.85127441 96.49985962 -49.22558594 95.51538086 C-52.06295704 86.29929181 -52.53054526 77.42011745 -52.64526367 67.8425293 C-52.67351825 66.15003134 -52.72151287 64.45775259 -52.78881836 62.76635742 C-53.34338191 48.7368486 -53.34338191 48.7368486 -50.18286133 44.65063477 C-47.84335834 43.0644849 -45.6336515 42.01174523 -43 41 C-41.86175781 40.35675781 -40.72351563 39.71351563 -39.55078125 39.05078125 C-37.94783203 38.19033203 -37.94783203 38.19033203 -36.3125 37.3125 C-21.28199934 28.93859981 -5.78164793 16.81933944 0 0 Z " fill="#FCD1A3" transform="translate(208,110)"/>
<path d="M0 0 C0.69480469 0.16016602 1.38960938 0.32033203 2.10546875 0.48535156 C24.03622832 5.72337781 45.73691393 17.97820028 58.83984375 36.6171875 C70.03055194 54.83461944 68.53073514 77.82042063 68.25 98.375 C68.22987582 100.97264226 68.21163567 103.57029982 68.1953125 106.16796875 C68.15185274 112.44565433 68.08542318 118.72275222 68 125 C61.77833734 125.16465017 56.02740553 124.90313651 49.94921875 123.56640625 C49.22081787 123.41349121 48.49241699 123.26057617 47.74194336 123.10302734 C45.38738208 122.6027205 43.03731623 122.08461176 40.6875 121.5625 C39.87519928 121.3845993 39.06289856 121.20669861 38.22598267 121.02340698 C22.50884459 117.56376362 7.22370775 113.24651186 -8 108 C-9.05461426 107.63793457 -10.10922852 107.27586914 -11.19580078 106.90283203 C-74.80919466 84.75609421 -74.80919466 84.75609421 -85.9375 64.23828125 C-86.4634375 63.13033203 -86.4634375 63.13033203 -87 62 C-87.391875 61.23042969 -87.78375 60.46085937 -88.1875 59.66796875 C-91.21087375 52.49795392 -91.38760057 45.57712379 -91.4375 37.875 C-91.4475708 36.86179688 -91.4576416 35.84859375 -91.46801758 34.8046875 C-91.36586888 25.90253723 -89.99707174 16.91969816 -84 10 C-62.21852895 -9.42907218 -26.25835472 -6.09339471 0 0 Z " fill="#544D55" transform="translate(288,19)"/>
<path d="M0 0 C6.13692503 4.18426707 7.22351351 11.02090897 8.57440186 17.94351196 C9.11237728 21.16237161 9.60576332 24.38530424 10.0859375 27.61328125 C10.46274643 30.0190049 10.84037465 32.42460035 11.21875 34.83007812 C11.80226806 38.58573635 12.37942303 42.34203188 12.94238281 46.10083008 C13.4928051 49.7539134 14.06864986 53.40225979 14.6484375 57.05078125 C14.81008392 58.17478836 14.97173035 59.29879547 15.13827515 60.4568634 C15.30840118 61.50532944 15.47852722 62.55379547 15.65380859 63.6340332 C15.79354095 64.5520723 15.93327332 65.47011139 16.07723999 66.41596985 C17.44978631 70.25954895 18.57863806 71.6687786 22 74 C26.37608239 74.75490546 30.71233059 74.68968669 35.14379883 74.65942383 C36.49428791 74.66788054 37.84476479 74.67852627 39.19522095 74.69119263 C42.85406943 74.71932201 46.51233134 74.71687066 50.17125535 74.70889878 C53.99769619 74.70577249 57.82395061 74.73081158 61.65031433 74.75285339 C68.89274664 74.79029896 76.13499117 74.80244167 83.37751073 74.8054778 C91.62423494 74.81016809 99.87077099 74.8430904 108.11741221 74.87837565 C125.07826097 74.95031469 142.0390059 74.98682762 159 75 C159.04059528 78.05742627 159.07030327 81.11430911 159.09375 84.171875 C159.11260254 85.46520752 159.11260254 85.46520752 159.13183594 86.78466797 C159.17457014 94.21329624 158.30964552 99.36728713 153.19921875 104.9765625 C147.2089139 110.62954922 141.35790835 113.35923142 133.10253906 113.41650391 C132.45284653 113.42508926 131.80315399 113.43367462 131.1337738 113.44252014 C129.01094397 113.46738131 126.88858651 113.4719403 124.765625 113.4765625 C123.28064572 113.49088883 121.79567963 113.50664876 120.31072998 113.52377319 C116.41903292 113.56546319 112.5274178 113.59056944 108.63555908 113.61126709 C102.39298739 113.6472036 96.15061757 113.70810108 89.90825653 113.76975632 C87.73068793 113.78882118 85.55317357 113.80056585 83.37554932 113.81118774 C82.05697937 113.82144989 80.73840942 113.83171204 79.37988281 113.84228516 C78.21741028 113.84878082 77.05493774 113.85527649 75.85723877 113.86196899 C72.92586363 113.87466622 72.92586363 113.87466622 70 115 C69.67 116.98 69.34 118.96 69 121 C62.07 121 55.14 121 48 121 C47.34 119.02 46.68 117.04 46 115 C43.46813122 113.73406561 41.65025209 113.84081806 38.81591797 113.79467773 C37.73494843 113.77473251 36.65397888 113.75478729 35.54025269 113.73423767 C34.36939117 113.71752518 33.19852966 113.70081268 31.9921875 113.68359375 C30.1985527 113.6524221 30.1985527 113.6524221 28.36868286 113.62062073 C24.53751536 113.55507711 20.70627762 113.49621782 16.875 113.4375 C14.28254473 113.39431937 11.69009664 113.35070523 9.09765625 113.30664062 C2.73184573 113.19939081 -3.63403513 113.0976334 -10 113 C-10.07004986 98.70962974 -10.122769 84.41928606 -10.15543652 70.12877941 C-10.17111285 63.49358872 -10.19238718 56.85851312 -10.22631836 50.22338867 C-10.25884137 43.82379839 -10.27683818 37.42431901 -10.28463173 31.02465248 C-10.29018792 28.57933111 -10.30103734 26.13401602 -10.31719017 23.68874168 C-10.33887029 20.27177032 -10.34197083 16.85526115 -10.34057617 13.43823242 C-10.351362 12.42043701 -10.36214783 11.4026416 -10.3732605 10.35400391 C-10.36913651 9.42432297 -10.36501251 8.49464203 -10.36076355 7.53678894 C-10.36352893 6.72837649 -10.36629431 5.91996405 -10.36914349 5.08705425 C-9.36073674 -0.61425073 -4.99573665 -0.68906712 0 0 Z " fill="#FCD1A3" transform="translate(274,384)"/>
<path d="M0 0 C2.15036712 1.56692098 2.90239675 2.44817317 3.36914349 5.08705425 C3.36637811 5.8954667 3.36361273 6.70387915 3.36076355 7.53678894 C3.36694954 8.93131035 3.36694954 8.93131035 3.3732605 10.35400391 C3.36247467 11.37179932 3.35168884 12.38959473 3.34057617 13.43823242 C3.34101425 14.51156326 3.34145233 15.5848941 3.34190369 16.69075012 C3.3398102 20.24584004 3.31645218 23.800461 3.29296875 27.35546875 C3.2873748 29.81740562 3.28310376 32.27934583 3.28010559 34.74128723 C3.26864104 41.22688996 3.23915979 47.71229172 3.20599365 54.19781494 C3.17532758 60.8134896 3.16160765 67.42919666 3.14648438 74.04492188 C3.11429182 87.03003375 3.06365104 100.01500619 3 113 C-16.54974546 113.09351272 -36.09944542 113.16401319 -55.64936829 113.20724869 C-64.7270964 113.22785882 -73.8046854 113.25594973 -82.88232422 113.30175781 C-90.79598905 113.34167309 -98.70955311 113.36744408 -106.62331581 113.37635398 C-110.81219586 113.38156081 -115.00078768 113.39376624 -119.1895752 113.42292023 C-123.13599719 113.45016362 -127.08201348 113.45842712 -131.02852058 113.45243073 C-132.47325918 113.45352699 -133.91801199 113.4614279 -135.36266899 113.4768219 C-144.6403289 113.57079525 -150.65004059 112.97696098 -158.20703125 107.359375 C-158.73683594 106.82828125 -159.26664062 106.2971875 -159.8125 105.75 C-160.35519531 105.22921875 -160.89789063 104.7084375 -161.45703125 104.171875 C-165.97700463 97.80958336 -166.41302769 91.52915518 -166.1875 84 C-166.17396484 83.12988281 -166.16042969 82.25976562 -166.14648438 81.36328125 C-166.11151678 79.24191373 -166.0577253 77.12087026 -166 75 C-165.29854764 74.99945523 -164.59709528 74.99891047 -163.87438679 74.99834919 C-146.80654976 74.98338195 -129.7390027 74.94093766 -112.67131519 74.86790943 C-104.4174841 74.83325605 -96.16382008 74.80790347 -87.90991211 74.80444336 C-80.7157897 74.80140393 -73.52196481 74.78091659 -66.32795733 74.73947543 C-62.51868122 74.71814143 -58.70982811 74.70554662 -54.90049171 74.71384621 C-51.31416842 74.72138421 -47.72870235 74.70557563 -44.14253616 74.67193985 C-42.20049002 74.65977883 -40.25833837 74.67229979 -38.31629944 74.68556213 C-31.64065689 74.66186321 -31.64065689 74.66186321 -25.76739502 71.8248291 C-23.87103974 68.7938827 -23.1153192 66.66716758 -22.57788086 63.14331055 C-22.39096176 61.98828537 -22.20404266 60.83326019 -22.01145935 59.64323425 C-21.8310762 58.40358414 -21.65069305 57.16393402 -21.46484375 55.88671875 C-21.15095843 53.92527982 -20.83705887 51.96384305 -20.52233982 50.00253773 C-20.08734049 47.26114252 -19.67056001 44.51710738 -19.25421143 41.77282715 C-18.52668202 36.98254584 -17.78578819 32.19448162 -17.02186584 27.40986633 C-16.61766287 24.86654649 -16.22629509 22.32114382 -15.84959412 19.77360535 C-14.80043225 13.12534878 -13.56988891 7.74818422 -10 2 C-6.30513897 -0.46324069 -4.36706908 -0.38991688 0 0 Z " fill="#FDD1A3" transform="translate(245,384)"/>
<path d="M0 0 C6.91382797 2.00565169 13.71305697 4.24040537 20.4921875 6.66015625 C21.46861206 7.00644577 22.44503662 7.35273529 23.4510498 7.70951843 C26.59327676 8.82463637 29.73422067 9.94331186 32.875 11.0625 C35.04113751 11.83312272 37.20731609 12.60362999 39.37353516 13.37402344 C42.59782098 14.52087067 45.821993 15.66803111 49.04574585 16.81637573 C55.03547145 18.94936181 61.02995246 21.06778751 67.03125 23.16796875 C68.31404887 23.61882023 69.59676777 24.06989934 70.87939453 24.52124023 C73.11823039 25.30822591 75.3586555 26.09071373 77.60107422 26.86743164 C93.38534598 32.44343931 105.99798595 39.70726203 114 55 C124.42942859 79.38146273 120 103.80864525 120 131 C77.43 131 34.86 131 -9 131 C-9 130.67 -9 130.34 -9 130 C25.98 130 60.96 130 97 130 C98.29670075 93.73703587 98.29670075 93.73703587 82.3125 63.125 C74.38568196 55.92378015 63.17151732 52.84605357 53.23046875 49.41796875 C52.03303543 49.00009598 50.83560211 48.58222321 49.60188293 48.15168762 C46.43716551 47.04805726 43.27103675 45.9486994 40.10400391 44.85174561 C34.47711077 42.90150745 28.85414221 40.9399658 23.23046875 38.98046875 C22.02164032 38.5602243 20.81281189 38.13997986 19.56735229 37.70700073 C10.93678866 34.69926826 2.33927209 31.60884627 -6.22383118 28.41386414 C-10.12710426 26.97152046 -13.86345468 25.62013757 -18 25 C-17.34 24.525625 -16.68 24.05125 -16 23.5625 C-7.9968754 16.72649773 -3.49886799 9.94149512 0 0 Z " fill="#3EC0A1" transform="translate(313,313)"/>
<path d="M0 0 C1.2080127 0.14381104 2.41602539 0.28762207 3.66064453 0.43579102 C4.38173401 0.52160431 5.10282349 0.6074176 5.84576416 0.6958313 C7.32675483 0.87220759 8.80768303 1.04910874 10.28857422 1.22631836 C15.85277004 1.88461568 21.42333207 2.45808733 27 3 C27.07519808 7.60405058 27.12908615 12.20772935 27.16479492 16.81225586 C27.17970976 18.3725407 27.20004901 19.93278494 27.22631836 21.49291992 C27.43700944 34.34507572 26.29912984 46.10437162 20.8125 57.9375 C20.50989258 58.60370361 20.20728516 59.26990723 19.89550781 59.95629883 C14.12266564 72.4163612 7.33287862 82.94035601 -2 93 C-2.50692383 93.55075195 -3.01384766 94.10150391 -3.53613281 94.66894531 C-20.01371872 112.38003734 -43.32490987 128.92840766 -68.25756836 130.10668945 C-70.58941866 130.16826698 -72.91738133 130.18555615 -75.25 130.1875 C-76.03890625 130.19974609 -76.8278125 130.21199219 -77.640625 130.22460938 C-84.70272256 130.2425032 -84.70272256 130.2425032 -88 128 C-87.46375 127.9484375 -86.9275 127.896875 -86.375 127.84375 C-62.50926414 124.38949876 -38.80401398 103.73100644 -24.63720703 85.21923828 C-11.41682811 67.43538718 -1.23274557 47.62909562 -0.68359375 25.09765625 C-0.6524221 24.01380898 -0.6524221 24.01380898 -0.62062073 22.9080658 C-0.55584574 20.6262963 -0.4965797 18.34442333 -0.4375 16.0625 C-0.39424603 14.50454709 -0.35062969 12.9466042 -0.30664062 11.38867188 C-0.20023961 7.59255078 -0.09877501 3.79632686 0 0 Z " fill="#FDBB85" transform="translate(329,156)"/>
<path d="M0 0 C21.55334158 1.99567978 43.0173808 14.16426699 57.75 29.75 C73.72881185 49.44570574 72.57940605 74.2568837 72.25 98.375 C72.22987582 100.97264226 72.21163567 103.57029982 72.1953125 106.16796875 C72.15185274 112.44565433 72.08542318 118.72275222 72 125 C70.42061036 125.0169028 68.84116754 125.02887624 67.26171875 125.03881836 C65.94240356 125.04962685 65.94240356 125.04962685 64.59643555 125.06065369 C60.91550582 124.97466582 57.60360844 124.33417435 54 123.5625 C52.72125 123.29566406 51.4425 123.02882813 50.125 122.75390625 C47 122 47 122 45 121 C44.98786972 119.95669022 44.98786972 119.95669022 44.97549438 118.89230347 C44.89691609 112.27425706 44.80944672 105.65639132 44.71247292 99.03858757 C44.66294179 95.63790681 44.61661595 92.23725084 44.578125 88.83642578 C44.53197104 84.90901187 44.47406371 80.98191147 44.4140625 77.0546875 C44.40251129 75.8582663 44.39096008 74.66184509 44.37905884 73.4291687 C43.99639061 51.08603772 39.16964217 32.96560883 23 17 C16.58765292 11.12682925 9.85586975 6.49394629 2.23828125 2.3125 C1.49964844 1.879375 0.76101563 1.44625 0 1 C0 0.67 0 0.34 0 0 Z " fill="#423E42" transform="translate(284,19)"/>
<path d="M0 0 C4.67369071 1.52175522 9.29748617 3.04756159 13.8125 5 C33.99577603 12.96305276 54.973173 12.04064128 75 4 C77.39789365 2.94596017 79.7823286 1.87135107 82.15454102 0.76074219 C84 0 84 0 86 0 C86.08797281 3.18732254 86.14071341 6.37432788 86.1875 9.5625 C86.21263672 10.45775391 86.23777344 11.35300781 86.26367188 12.27539062 C86.34630268 19.79479402 84.94863999 25.71095403 79.7578125 31.5234375 C65.99449297 43.08462591 46.97549428 43.3128039 30 42 C20.01138832 40.59587138 9.73117353 35.89868806 3.4375 27.875 C0.5186396 23.75717428 -0.12972051 20.23639938 -0.09765625 15.234375 C-0.09443359 14.34492188 -0.09121094 13.45546875 -0.08789062 12.5390625 C-0.07532227 11.15847656 -0.07532227 11.15847656 -0.0625 9.75 C-0.05798828 8.81414062 -0.05347656 7.87828125 -0.04882812 6.9140625 C-0.03706918 4.60930959 -0.02063426 2.30468773 0 0 Z " fill="#FCBB84" transform="translate(213,290)"/>
<path d="M0 0 C-0.01571045 0.67877197 -0.0314209 1.35754395 -0.04760742 2.05688477 C-0.43586463 21.41240766 -0.77332874 39.18363535 11.71484375 55.19921875 C13 57 13 57 13.0625 59.625 C7.49087977 77.3230878 -8.08562697 86.95187619 -23.07421875 96.00390625 C-25 97 -25 97 -27 97 C-27.05126493 90.15392301 -27.0859672 83.30789661 -27.10986328 76.46166992 C-27.11983916 74.13905996 -27.13342467 71.81646229 -27.15087891 69.49389648 C-27.49158233 22.94779664 -27.49158233 22.94779664 -12.75390625 7.671875 C-4.35071942 0 -4.35071942 0 0 0 Z " fill="#534C54" transform="translate(183,42)"/>
<path d="M0 0 C3.57392892 0.52947095 4.29486189 0.72095443 6.375 3.5 C6.74414349 5.58705425 6.74414349 5.58705425 6.73576355 8.03678894 C6.73988754 8.96646988 6.74401154 9.89615082 6.7482605 10.85400391 C6.73747467 11.87179932 6.72668884 12.88959473 6.71557617 13.93823242 C6.71623329 15.54822868 6.71623329 15.54822868 6.71690369 17.19075012 C6.7148102 20.74584004 6.69145218 24.300461 6.66796875 27.85546875 C6.6623748 30.31740562 6.65810376 32.77934583 6.65510559 35.24128723 C6.64364104 41.72688996 6.61415979 48.21229172 6.58099365 54.69781494 C6.55032758 61.3134896 6.53660765 67.92919666 6.52148438 74.54492188 C6.48929182 87.5300363 6.43807586 100.51500145 6.375 113.5 C2.085 113.5 -2.205 113.5 -6.625 113.5 C-6.955 79.18 -7.285 44.86 -7.625 9.5 C-8.615 9.995 -8.615 9.995 -9.625 10.5 C-9.33054242 7.06466156 -8.60763518 5.47701716 -6.5 2.6875 C-3.625 0.5 -3.625 0.5 0 0 Z " fill="#FEBC85" transform="translate(241.625,383.5)"/>
<path d="M0 0 C4.68940295 1.51271063 9.2716907 3.08653093 13.8125 5 C33.99577603 12.96305276 54.973173 12.04064128 75 4 C77.39789365 2.94596017 79.7823286 1.87135107 82.15454102 0.76074219 C84 0 84 0 86 0 C86.08797281 3.18732254 86.14071341 6.37432788 86.1875 9.5625 C86.21263672 10.45775391 86.23777344 11.35300781 86.26367188 12.27539062 C86.35983999 21.02668929 84.05755675 26.63956541 78 33 C76.515 33.495 76.515 33.495 75 34 C74.67 28.72 74.34 23.44 74 18 C67.59870939 19.19043892 67.59870939 19.19043892 61.296875 20.80078125 C39.87702197 27.11305637 19.2082191 20.96300752 0 11 C0 7.37 0 3.74 0 0 Z " fill="#F3A76B" transform="translate(213,290)"/>
<path d="M0 0 C-0.01571045 0.67877197 -0.0314209 1.35754395 -0.04760742 2.05688477 C-0.43586463 21.41240766 -0.77332874 39.18363535 11.71484375 55.19921875 C13 57 13 57 13.0625 59.625 C10.93402417 66.38604088 7.14742132 72.15405455 2 77 C-9.80871619 57.98298558 -13.8986739 39.27104709 -13 17 C-12.95488281 15.86046875 -12.90976563 14.7209375 -12.86328125 13.546875 C-12.42666091 9.39614658 -11.99418437 6.95847643 -8.93359375 4.0078125 C-3.18044355 0 -3.18044355 0 0 0 Z " fill="#423E42" transform="translate(183,42)"/>
<path d="M0 0 C7.59 0 15.18 0 23 0 C23.64073469 22.90626518 23.64073469 22.90626518 17.19921875 29.9765625 C9.37745514 37.35787729 3.37094927 38.33659013 -7.18359375 38.10546875 C-8.11300781 38.07066406 -9.04242188 38.03585937 -10 38 C-9.27683594 36.93072266 -9.27683594 36.93072266 -8.5390625 35.83984375 C-7.90742188 34.88207031 -7.27578125 33.92429687 -6.625 32.9375 C-5.99851562 31.99777344 -5.37203125 31.05804688 -4.7265625 30.08984375 C-1.02344668 23.4627745 -0.63195041 16.97204862 -0.375 9.5625 C-0.25125 6.406875 -0.1275 3.25125 0 0 Z " fill="#FDBC85" transform="translate(410,459)"/>
<path d="M0 0 C0.83015625 0.00539795 1.6603125 0.0107959 2.515625 0.01635742 C9.70572614 0.19372634 16.64720323 1.25015477 22.4453125 5.82421875 C24.39069387 8.35076751 24.10821647 10.4809708 23.9609375 13.5625 C23.6875 15.4375 23.6875 15.4375 22.6875 17.4375 C19.49210005 19.03519998 16.15252512 18.94960544 12.6875 18.4375 C12.10871094 18.10621094 11.52992188 17.77492187 10.93359375 17.43359375 C7.59342812 15.9523029 4.27352345 16.14852148 0.6875 16.1875 C-0.0240625 16.17976562 -0.735625 16.17203125 -1.46875 16.1640625 C-5.32819453 16.17846341 -7.97536812 16.5273822 -11.3125 18.4375 C-14.77752512 18.94960544 -18.11710005 19.03519998 -21.3125 17.4375 C-22.95238934 14.15772133 -23.05375796 10.9584753 -22.3125 7.4375 C-16.71022367 0.95986799 -8.069383 -0.10054033 0 0 Z " fill="#050403" transform="translate(255.3125,231.5625)"/>
<path d="M0 0 C0.02505615 0.95777344 0.0501123 1.91554687 0.07592773 2.90234375 C0.17077972 6.48823245 0.27080373 10.07396211 0.37231445 13.65966797 C0.41537149 15.20552831 0.45706426 16.75142731 0.49731445 18.29736328 C0.55573303 20.53169361 0.61921267 22.76583444 0.68359375 25 C0.70030624 25.68054443 0.71701874 26.36108887 0.73423767 27.06225586 C0.87648194 31.76978348 1.36066256 36.34034491 2 41 C-4.64744427 40.36691007 -8.77128742 37.53988172 -13.1875 32.6875 C-17.4774576 27.38416659 -19.66334327 22.12055511 -19.41796875 15.2734375 C-18.44268962 9.96864824 -15.25527985 6.19404668 -11.4375 2.5625 C-7.4998193 0.0383457 -4.59678893 -0.03024203 0 0 Z " fill="#F1A569" transform="translate(141,161)"/>
<path d="M0 0 C9.64386364 0.63160425 9.64386364 0.63160425 12.9375 3.8125 C13.48277344 4.31394531 14.02804687 4.81539062 14.58984375 5.33203125 C18.62579971 10.10586281 18.42677035 14.67873909 18.3046875 20.7421875 C17.6731832 27.49442582 14.97331739 31.34479416 10.0625 35.875 C6.17988398 39.04315694 3.11276536 41 -2 41 C-1.84152588 39.845 -1.68305176 38.69 -1.51977539 37.5 C-1.00090247 33.33758647 -0.7865273 29.19152618 -0.68359375 25 C-0.66281265 24.2788501 -0.64203156 23.5577002 -0.62062073 22.81469727 C-0.55598066 20.54321493 -0.49664449 18.27163138 -0.4375 16 C-0.3942331 14.44660471 -0.35061642 12.89321913 -0.30664062 11.33984375 C-0.20038904 7.55999576 -0.0988892 3.78004748 0 0 Z " fill="#F3A76A" transform="translate(371,161)"/>
<path d="M0 0 C2.1875 1.53125 2.1875 1.53125 4 4 C4.40100915 6.83065284 4.56122899 9.18346659 4.5 12 C4.51546875 12.7115625 4.5309375 13.423125 4.546875 14.15625 C4.52100226 17.62319701 4.26149078 19.64439508 2.1875 22.46484375 C-1.04431018 24.73288196 -3.15428873 24.61806074 -7 24 C-10.00408864 21.16757356 -10.92876359 19.48660756 -11.53125 15.37109375 C-11.5209375 14.07300781 -11.510625 12.77492187 -11.5 11.4375 C-11.5103125 10.13683594 -11.520625 8.83617187 -11.53125 7.49609375 C-11 4 -11 4 -9.1875 1.56640625 C-5.98770646 -0.72487448 -3.83579451 -0.54797064 0 0 Z " fill="#060504" transform="translate(305,169)"/>
<path d="M0 0 C2.1875 1.56640625 2.1875 1.56640625 4 4 C4.53125 7.49609375 4.53125 7.49609375 4.5 11.4375 C4.5103125 12.73558594 4.520625 14.03367188 4.53125 15.37109375 C3.92876359 19.48660756 3.00408864 21.16757356 0 24 C-3.84571127 24.61806074 -5.95568982 24.73288196 -9.1875 22.46484375 C-11.6788481 19.0768251 -11.58789618 16.04322406 -11.5 12 C-11.51546875 11.2884375 -11.5309375 10.576875 -11.546875 9.84375 C-11.52099433 6.37574073 -11.25988236 4.35397769 -9.1875 1.53125 C-5.98117211 -0.71317952 -3.81673845 -0.54524835 0 0 Z " fill="#060504" transform="translate(214,169)"/>
</svg>
